# Blender v3.0.0 OBJ File: ''
# www.blender.org
mtllib kamien3.mtl
o Cube.002_Cube.003
v 0.036568 2.526423 -0.599878
v -0.502170 2.678835 -0.237727
v -0.311437 3.171213 -0.092112
v -0.061845 3.117725 -0.251310
v -0.598796 2.520582 0.382000
v -0.323813 3.016855 0.402728
v -0.162928 2.923625 0.482321
v -0.690248 2.504644 -0.184829
v -0.645420 1.075219 -0.404486
v -0.526264 1.722368 0.550883
v 0.153325 1.909611 0.784893
v -0.163867 1.320535 0.763909
v 0.545597 0.463108 0.520095
v -0.125246 0.602225 0.660854
v 0.252307 0.255707 0.545779
v -0.491253 0.552986 0.360984
v -0.288706 0.362703 0.486433
v -0.553435 0.482932 -0.044923
v -0.624336 1.081785 -0.434968
v -0.407079 1.925345 -0.665821
v 0.387956 2.795036 0.163616
v 0.448407 1.674954 0.699790
v 0.766179 2.175817 0.218986
v 0.149405 0.989718 -0.753161
v 0.821409 0.628632 -0.104616
v 0.078418 0.081386 -0.483808
v 0.034732 0.278851 -0.588079
v 0.848813 0.655949 0.054498
v -0.208893 1.955140 -0.756011
v -0.045403 0.034365 0.351812
v 0.762058 1.413370 -0.430638
v 0.682488 1.463370 -0.510017
v -0.124472 -0.046039 -0.139523
v 0.887951 1.718567 0.019216
vt 0.045418 0.668148
vt 0.164337 0.743638
vt 0.113077 0.844062
vt 0.057585 0.815589
vt 0.282820 0.797420
vt 0.209807 0.888727
vt 0.682401 0.736211
vt 0.616884 0.641002
vt 0.638693 0.606244
vt 0.207286 0.717923
vt 0.299494 0.483932
vt 0.419133 0.681802
vt 0.671211 0.405736
vt 0.523438 0.558599
vt 0.523439 0.372646
vt 0.618895 0.290683
vt 0.795157 0.122369
vt 0.640309 0.143312
vt 0.730098 0.069515
vt 0.539225 0.110020
vt 0.602976 0.078264
vt 0.392838 0.393057
vt 0.292805 0.481697
vt 0.523183 0.368481
vt 0.476593 0.423323
vt 0.171121 0.585676
vt 0.754453 0.581548
vt 0.729500 0.364462
vt 0.811540 0.470359
vt 0.167686 0.384810
vt 0.079380 0.202902
vt 0.293149 0.248663
vt 0.273646 0.291131
vt 0.233339 0.029178
vt 0.256797 0.000127
vt 0.390908 0.000127
vt 0.133604 0.570429
vt 0.752686 0.725742
vt 0.663511 0.000127
vt 0.000127 0.376622
vt 0.013080 0.399820
vt 0.388676 0.243935
vt 0.916005 0.182174
vt 0.953988 0.185186
vt 0.984157 0.381081
vt 0.870354 0.400114
vt 0.507247 0.266675
vt 0.999873 0.403463
vt 0.913333 0.674918
vt 0.445529 0.061446
vt 0.462062 0.155460
vn -0.4285 0.4049 -0.8078
vn -0.9062 0.4219 0.0297
vn 0.3712 0.8838 0.2850
vn -0.9855 -0.0556 0.1606
vn -0.3608 0.1616 0.9185
vn 0.1776 -0.1304 0.9754
vn -0.6154 -0.1443 0.7749
vn -0.6846 -0.4530 -0.5711
vn -0.7373 -0.6377 0.2230
vn -0.8269 0.0600 -0.5591
vn 0.5276 0.3898 0.7548
vn 0.5887 -0.2718 -0.7613
vn 0.5792 -0.8142 0.0400
vn -0.6638 0.7429 0.0862
vn -0.5555 -0.3087 -0.7721
vn -0.1902 -0.4898 0.8508
vn -0.3912 -0.1478 -0.9084
vn 0.3239 0.1174 -0.9388
vn 0.9734 -0.0337 -0.2266
vn 0.7595 0.4195 -0.4971
vn 0.8403 -0.0130 0.5419
vn -0.4650 0.3922 -0.7937
usemtl MAT_crystal
s off
f 1/1/1 2/2/1 3/3/1 4/4/1
f 3/3/2 2/2/2 5/5/2 6/6/2
f 3/7/3 6/8/3 7/9/3
f 8/10/4 9/11/4 10/12/4 5/5/4
f 11/13/5 5/14/5 10/15/5 12/16/5
f 13/17/6 12/16/6 14/18/6 15/19/6
f 14/18/7 12/16/7 16/20/7 17/21/7
f 18/22/8 9/11/8 19/23/8
f 17/24/9 16/25/9 18/22/9
f 9/11/10 8/10/10 20/26/10 19/23/10
f 21/27/11 11/13/11 22/28/11 23/29/11
f 21/27/11 7/9/11 11/13/11
f 24/30/12 25/31/12 26/32/12 27/33/12
f 25/34/13 28/35/13 13/36/13
f 6/8/5 5/14/5 11/13/5 7/9/5
f 1/1/1 29/37/1 20/26/1
f 8/10/14 5/5/14 2/2/14
f 19/23/15 24/30/15 27/33/15 18/22/15
f 4/38/3 3/7/3 7/9/3 21/27/3
f 10/12/4 9/11/4 18/22/4 16/25/4
f 15/19/16 14/18/16 17/21/16 30/39/16
f 10/15/7 16/20/7 12/16/7
f 11/13/6 12/16/6 13/17/6 22/28/6
f 29/37/17 24/30/17 19/23/17 20/26/17
f 31/40/12 25/31/12 24/30/12 32/41/12
f 32/41/18 24/30/18 29/37/18 1/1/18
f 18/22/8 27/33/8 26/32/8 33/42/8
f 28/43/19 25/44/19 31/45/19 34/46/19
f 17/24/9 18/22/9 33/42/9 30/47/9
f 23/29/20 32/48/20 1/49/20 21/27/20
f 23/29/20 34/46/20 31/45/20 32/48/20
f 4/38/20 21/27/20 1/49/20
f 13/17/21 28/43/21 22/28/21
f 23/29/21 22/28/21 28/43/21 34/46/21
f 15/50/13 33/42/13 26/32/13 25/34/13
f 15/50/13 30/51/13 33/42/13
f 20/26/22 8/10/22 2/2/22 1/1/22
f 25/34/13 13/36/13 15/50/13
